G04 MADE WITH FRITZING*
G04 WWW.FRITZING.ORG*
G04 DOUBLE SIDED*
G04 HOLES PLATED*
G04 CONTOUR ON CENTER OF CONTOUR VECTOR*
%ASAXBY*%
%FSLAX23Y23*%
%MOIN*%
%OFA0B0*%
%SFA1.0B1.0*%
%ADD10C,0.103000*%
%ADD11C,0.088000*%
%ADD12C,0.085000*%
%ADD13C,0.080000*%
%ADD14C,0.090000*%
%ADD15C,0.092000*%
%ADD16C,0.168100*%
%ADD17C,0.150000*%
%ADD18C,0.072992*%
%ADD19C,0.080925*%
%ADD20C,0.080866*%
%ADD21C,0.079000*%
%ADD22C,0.095000*%
%ADD23C,0.135984*%
%ADD24R,0.310000X0.309999*%
%ADD25R,0.090000X0.090000*%
%ADD26R,0.085000X0.085000*%
%ADD27R,0.092000X0.092000*%
%ADD28R,0.072992X0.072992*%
%ADD29R,0.079000X0.079000*%
%ADD30R,0.001000X0.001000*%
%LNMASK1*%
G90*
G70*
G54D10*
X1871Y2200D03*
X2391Y2200D03*
X1871Y2200D03*
X2391Y2200D03*
G54D11*
X212Y1202D03*
X212Y1302D03*
X212Y1402D03*
X212Y1502D03*
X212Y1602D03*
X212Y1702D03*
G54D12*
X599Y1702D03*
X599Y1446D03*
X422Y1702D03*
X422Y1446D03*
G54D13*
X569Y1198D03*
X469Y1198D03*
G54D14*
X1967Y346D03*
X2105Y346D03*
X2243Y346D03*
G54D12*
X801Y1448D03*
X801Y1748D03*
X901Y1448D03*
X901Y1748D03*
X1001Y1448D03*
X1001Y1748D03*
X1101Y1448D03*
X1101Y1748D03*
X1201Y1448D03*
X1201Y1748D03*
X1301Y1448D03*
X1301Y1748D03*
X1401Y1448D03*
X1401Y1748D03*
X1501Y1448D03*
X1501Y1748D03*
X1601Y1448D03*
X1601Y1748D03*
X1701Y1448D03*
X1701Y1748D03*
X1801Y1448D03*
X1801Y1748D03*
X1901Y1448D03*
X1901Y1748D03*
X2001Y1448D03*
X2001Y1748D03*
X2101Y1448D03*
X2101Y1748D03*
G54D15*
X1289Y400D03*
X1289Y500D03*
X1289Y600D03*
G54D16*
X541Y448D03*
G54D17*
X301Y448D03*
X421Y258D03*
G54D13*
X501Y748D03*
X501Y848D03*
G54D12*
X1602Y417D03*
X1602Y517D03*
X201Y848D03*
X201Y748D03*
G54D18*
X1172Y951D03*
X1271Y951D03*
G54D12*
X1001Y948D03*
X601Y948D03*
X674Y1201D03*
X1074Y1201D03*
G54D19*
X1692Y1218D03*
G54D20*
X1499Y1218D03*
G54D13*
X1215Y1200D03*
X1215Y1099D03*
X1501Y773D03*
X1501Y873D03*
X1693Y868D03*
X1693Y768D03*
G54D18*
X1771Y1970D03*
X1673Y1970D03*
G54D12*
X1535Y1969D03*
X1535Y2369D03*
X1037Y2286D03*
X1337Y2286D03*
X1037Y2186D03*
X1337Y2186D03*
X1037Y2086D03*
X1337Y2086D03*
X1037Y1986D03*
X1337Y1986D03*
X501Y1948D03*
X501Y2348D03*
X301Y1948D03*
X301Y2348D03*
G54D21*
X815Y2298D03*
X715Y2298D03*
G54D22*
X3017Y2196D03*
X3017Y1999D03*
X2525Y1999D03*
X2525Y2196D03*
X3017Y2196D03*
X3017Y1999D03*
X2525Y1999D03*
X2525Y2196D03*
X3017Y2196D03*
X3017Y1999D03*
X2525Y1999D03*
X2525Y2196D03*
X3017Y1672D03*
X3017Y1475D03*
X2525Y1475D03*
X2525Y1672D03*
X3017Y1672D03*
X3017Y1475D03*
X2525Y1475D03*
X2525Y1672D03*
X3017Y1672D03*
X3017Y1475D03*
X2525Y1475D03*
X2525Y1672D03*
G54D12*
X2342Y1248D03*
X1942Y1248D03*
X2342Y848D03*
X1942Y848D03*
X2342Y1048D03*
X1942Y1048D03*
X2337Y648D03*
X1937Y648D03*
G54D23*
X3021Y2448D03*
X3009Y129D03*
X101Y2448D03*
X117Y109D03*
G54D22*
X3025Y598D03*
X3025Y401D03*
X2533Y401D03*
X2533Y598D03*
X3025Y598D03*
X3025Y401D03*
X2533Y401D03*
X2533Y598D03*
X3025Y598D03*
X3025Y401D03*
X2533Y401D03*
X2533Y598D03*
X3017Y1125D03*
X3017Y928D03*
X2525Y928D03*
X2525Y1125D03*
X3017Y1125D03*
X3017Y928D03*
X2525Y928D03*
X2525Y1125D03*
X3017Y1125D03*
X3017Y928D03*
X2525Y928D03*
X2525Y1125D03*
G54D24*
X2131Y2200D03*
G54D25*
X1967Y346D03*
G54D26*
X801Y1448D03*
G54D27*
X1289Y400D03*
G54D26*
X1602Y417D03*
X201Y848D03*
G54D28*
X1172Y951D03*
X1771Y1970D03*
G54D26*
X1037Y2286D03*
G54D29*
X815Y2298D03*
G54D30*
X1819Y2251D02*
X1921Y2251D01*
X2339Y2251D02*
X2441Y2251D01*
X1819Y2250D02*
X1921Y2250D01*
X2339Y2250D02*
X2441Y2250D01*
X1819Y2249D02*
X1921Y2249D01*
X2339Y2249D02*
X2441Y2249D01*
X1819Y2248D02*
X1921Y2248D01*
X2339Y2248D02*
X2441Y2248D01*
X1819Y2247D02*
X1921Y2247D01*
X2339Y2247D02*
X2441Y2247D01*
X1819Y2246D02*
X1921Y2246D01*
X2339Y2246D02*
X2441Y2246D01*
X1819Y2245D02*
X1921Y2245D01*
X2339Y2245D02*
X2441Y2245D01*
X1819Y2244D02*
X1921Y2244D01*
X2339Y2244D02*
X2441Y2244D01*
X1819Y2243D02*
X1921Y2243D01*
X2339Y2243D02*
X2441Y2243D01*
X1819Y2242D02*
X1921Y2242D01*
X2339Y2242D02*
X2441Y2242D01*
X1819Y2241D02*
X1921Y2241D01*
X2339Y2241D02*
X2441Y2241D01*
X1819Y2240D02*
X1921Y2240D01*
X2339Y2240D02*
X2441Y2240D01*
X1819Y2239D02*
X1921Y2239D01*
X2339Y2239D02*
X2441Y2239D01*
X1819Y2238D02*
X1921Y2238D01*
X2339Y2238D02*
X2441Y2238D01*
X1819Y2237D02*
X1921Y2237D01*
X2339Y2237D02*
X2441Y2237D01*
X1819Y2236D02*
X1921Y2236D01*
X2339Y2236D02*
X2441Y2236D01*
X1819Y2235D02*
X1921Y2235D01*
X2339Y2235D02*
X2441Y2235D01*
X1819Y2234D02*
X1921Y2234D01*
X2339Y2234D02*
X2441Y2234D01*
X1819Y2233D02*
X1921Y2233D01*
X2339Y2233D02*
X2441Y2233D01*
X1819Y2232D02*
X1921Y2232D01*
X2339Y2232D02*
X2441Y2232D01*
X1819Y2231D02*
X1862Y2231D01*
X1879Y2231D02*
X1921Y2231D01*
X2339Y2231D02*
X2382Y2231D01*
X2399Y2231D02*
X2441Y2231D01*
X1819Y2230D02*
X1859Y2230D01*
X1882Y2230D02*
X1921Y2230D01*
X2339Y2230D02*
X2378Y2230D01*
X2402Y2230D02*
X2441Y2230D01*
X1819Y2229D02*
X1856Y2229D01*
X1884Y2229D02*
X1921Y2229D01*
X2339Y2229D02*
X2376Y2229D01*
X2404Y2229D02*
X2441Y2229D01*
X1819Y2228D02*
X1854Y2228D01*
X1886Y2228D02*
X1921Y2228D01*
X2339Y2228D02*
X2374Y2228D01*
X2406Y2228D02*
X2441Y2228D01*
X1819Y2227D02*
X1853Y2227D01*
X1888Y2227D02*
X1921Y2227D01*
X2339Y2227D02*
X2373Y2227D01*
X2408Y2227D02*
X2441Y2227D01*
X1819Y2226D02*
X1851Y2226D01*
X1889Y2226D02*
X1921Y2226D01*
X2339Y2226D02*
X2371Y2226D01*
X2409Y2226D02*
X2441Y2226D01*
X1819Y2225D02*
X1850Y2225D01*
X1890Y2225D02*
X1921Y2225D01*
X2339Y2225D02*
X2370Y2225D01*
X2410Y2225D02*
X2441Y2225D01*
X1819Y2224D02*
X1849Y2224D01*
X1892Y2224D02*
X1921Y2224D01*
X2339Y2224D02*
X2369Y2224D01*
X2412Y2224D02*
X2441Y2224D01*
X1819Y2223D02*
X1848Y2223D01*
X1893Y2223D02*
X1921Y2223D01*
X2339Y2223D02*
X2368Y2223D01*
X2413Y2223D02*
X2441Y2223D01*
X1819Y2222D02*
X1847Y2222D01*
X1894Y2222D02*
X1921Y2222D01*
X2339Y2222D02*
X2367Y2222D01*
X2414Y2222D02*
X2441Y2222D01*
X1819Y2221D02*
X1846Y2221D01*
X1895Y2221D02*
X1921Y2221D01*
X2339Y2221D02*
X2366Y2221D01*
X2414Y2221D02*
X2441Y2221D01*
X1819Y2220D02*
X1845Y2220D01*
X1895Y2220D02*
X1921Y2220D01*
X2339Y2220D02*
X2365Y2220D01*
X2415Y2220D02*
X2441Y2220D01*
X1819Y2219D02*
X1844Y2219D01*
X1896Y2219D02*
X1921Y2219D01*
X2339Y2219D02*
X2364Y2219D01*
X2416Y2219D02*
X2441Y2219D01*
X1819Y2218D02*
X1843Y2218D01*
X1897Y2218D02*
X1921Y2218D01*
X2339Y2218D02*
X2363Y2218D01*
X2417Y2218D02*
X2441Y2218D01*
X1819Y2217D02*
X1843Y2217D01*
X1898Y2217D02*
X1921Y2217D01*
X2339Y2217D02*
X2363Y2217D01*
X2417Y2217D02*
X2441Y2217D01*
X1819Y2216D02*
X1842Y2216D01*
X1898Y2216D02*
X1921Y2216D01*
X2339Y2216D02*
X2362Y2216D01*
X2418Y2216D02*
X2441Y2216D01*
X1819Y2215D02*
X1842Y2215D01*
X1899Y2215D02*
X1921Y2215D01*
X2339Y2215D02*
X2362Y2215D01*
X2419Y2215D02*
X2441Y2215D01*
X1819Y2214D02*
X1841Y2214D01*
X1899Y2214D02*
X1921Y2214D01*
X2339Y2214D02*
X2361Y2214D01*
X2419Y2214D02*
X2441Y2214D01*
X1819Y2213D02*
X1841Y2213D01*
X1900Y2213D02*
X1921Y2213D01*
X2339Y2213D02*
X2361Y2213D01*
X2420Y2213D02*
X2441Y2213D01*
X1819Y2212D02*
X1840Y2212D01*
X1900Y2212D02*
X1921Y2212D01*
X2339Y2212D02*
X2360Y2212D01*
X2420Y2212D02*
X2441Y2212D01*
X1819Y2211D02*
X1840Y2211D01*
X1900Y2211D02*
X1921Y2211D01*
X2339Y2211D02*
X2360Y2211D01*
X2420Y2211D02*
X2441Y2211D01*
X1819Y2210D02*
X1840Y2210D01*
X1901Y2210D02*
X1921Y2210D01*
X2339Y2210D02*
X2359Y2210D01*
X2421Y2210D02*
X2441Y2210D01*
X1819Y2209D02*
X1839Y2209D01*
X1901Y2209D02*
X1921Y2209D01*
X2339Y2209D02*
X2359Y2209D01*
X2421Y2209D02*
X2441Y2209D01*
X1819Y2208D02*
X1839Y2208D01*
X1901Y2208D02*
X1921Y2208D01*
X2339Y2208D02*
X2359Y2208D01*
X2421Y2208D02*
X2441Y2208D01*
X1819Y2207D02*
X1839Y2207D01*
X1902Y2207D02*
X1921Y2207D01*
X2339Y2207D02*
X2359Y2207D01*
X2421Y2207D02*
X2441Y2207D01*
X1819Y2206D02*
X1839Y2206D01*
X1902Y2206D02*
X1921Y2206D01*
X2339Y2206D02*
X2359Y2206D01*
X2422Y2206D02*
X2441Y2206D01*
X1819Y2205D02*
X1839Y2205D01*
X1902Y2205D02*
X1921Y2205D01*
X2339Y2205D02*
X2358Y2205D01*
X2422Y2205D02*
X2441Y2205D01*
X1819Y2204D02*
X1838Y2204D01*
X1902Y2204D02*
X1921Y2204D01*
X2339Y2204D02*
X2358Y2204D01*
X2422Y2204D02*
X2441Y2204D01*
X1819Y2203D02*
X1838Y2203D01*
X1902Y2203D02*
X1921Y2203D01*
X2339Y2203D02*
X2358Y2203D01*
X2422Y2203D02*
X2441Y2203D01*
X1819Y2202D02*
X1838Y2202D01*
X1902Y2202D02*
X1921Y2202D01*
X2339Y2202D02*
X2358Y2202D01*
X2422Y2202D02*
X2441Y2202D01*
X1819Y2201D02*
X1838Y2201D01*
X1902Y2201D02*
X1921Y2201D01*
X2339Y2201D02*
X2358Y2201D01*
X2422Y2201D02*
X2441Y2201D01*
X1819Y2200D02*
X1838Y2200D01*
X1902Y2200D02*
X1921Y2200D01*
X2339Y2200D02*
X2358Y2200D01*
X2422Y2200D02*
X2441Y2200D01*
X1819Y2199D02*
X1838Y2199D01*
X1902Y2199D02*
X1921Y2199D01*
X2339Y2199D02*
X2358Y2199D01*
X2422Y2199D02*
X2441Y2199D01*
X1819Y2198D02*
X1838Y2198D01*
X1902Y2198D02*
X1921Y2198D01*
X2339Y2198D02*
X2358Y2198D01*
X2422Y2198D02*
X2441Y2198D01*
X1819Y2197D02*
X1838Y2197D01*
X1902Y2197D02*
X1921Y2197D01*
X2339Y2197D02*
X2358Y2197D01*
X2422Y2197D02*
X2441Y2197D01*
X1819Y2196D02*
X1839Y2196D01*
X1902Y2196D02*
X1921Y2196D01*
X2339Y2196D02*
X2358Y2196D01*
X2422Y2196D02*
X2441Y2196D01*
X1819Y2195D02*
X1839Y2195D01*
X1902Y2195D02*
X1921Y2195D01*
X2339Y2195D02*
X2359Y2195D01*
X2422Y2195D02*
X2441Y2195D01*
X1819Y2194D02*
X1839Y2194D01*
X1902Y2194D02*
X1921Y2194D01*
X2339Y2194D02*
X2359Y2194D01*
X2421Y2194D02*
X2441Y2194D01*
X1819Y2193D02*
X1839Y2193D01*
X1901Y2193D02*
X1921Y2193D01*
X2339Y2193D02*
X2359Y2193D01*
X2421Y2193D02*
X2441Y2193D01*
X1819Y2192D02*
X1839Y2192D01*
X1901Y2192D02*
X1921Y2192D01*
X2339Y2192D02*
X2359Y2192D01*
X2421Y2192D02*
X2441Y2192D01*
X1819Y2191D02*
X1840Y2191D01*
X1901Y2191D02*
X1921Y2191D01*
X2339Y2191D02*
X2359Y2191D01*
X2421Y2191D02*
X2441Y2191D01*
X1819Y2190D02*
X1840Y2190D01*
X1900Y2190D02*
X1921Y2190D01*
X2339Y2190D02*
X2360Y2190D01*
X2420Y2190D02*
X2441Y2190D01*
X1819Y2189D02*
X1840Y2189D01*
X1900Y2189D02*
X1921Y2189D01*
X2339Y2189D02*
X2360Y2189D01*
X2420Y2189D02*
X2441Y2189D01*
X1819Y2188D02*
X1841Y2188D01*
X1900Y2188D02*
X1921Y2188D01*
X2339Y2188D02*
X2361Y2188D01*
X2420Y2188D02*
X2441Y2188D01*
X1819Y2187D02*
X1841Y2187D01*
X1899Y2187D02*
X1921Y2187D01*
X2339Y2187D02*
X2361Y2187D01*
X2419Y2187D02*
X2441Y2187D01*
X1819Y2186D02*
X1842Y2186D01*
X1899Y2186D02*
X1921Y2186D01*
X2339Y2186D02*
X2362Y2186D01*
X2419Y2186D02*
X2441Y2186D01*
X1819Y2185D02*
X1842Y2185D01*
X1898Y2185D02*
X1921Y2185D01*
X2339Y2185D02*
X2362Y2185D01*
X2418Y2185D02*
X2441Y2185D01*
X1819Y2184D02*
X1843Y2184D01*
X1898Y2184D02*
X1921Y2184D01*
X2339Y2184D02*
X2363Y2184D01*
X2417Y2184D02*
X2441Y2184D01*
X1819Y2183D02*
X1843Y2183D01*
X1897Y2183D02*
X1921Y2183D01*
X2339Y2183D02*
X2363Y2183D01*
X2417Y2183D02*
X2441Y2183D01*
X1819Y2182D02*
X1844Y2182D01*
X1896Y2182D02*
X1921Y2182D01*
X2339Y2182D02*
X2364Y2182D01*
X2416Y2182D02*
X2441Y2182D01*
X1819Y2181D02*
X1845Y2181D01*
X1895Y2181D02*
X1921Y2181D01*
X2339Y2181D02*
X2365Y2181D01*
X2415Y2181D02*
X2441Y2181D01*
X1819Y2180D02*
X1846Y2180D01*
X1895Y2180D02*
X1921Y2180D01*
X2339Y2180D02*
X2366Y2180D01*
X2414Y2180D02*
X2441Y2180D01*
X1819Y2179D02*
X1847Y2179D01*
X1894Y2179D02*
X1921Y2179D01*
X2339Y2179D02*
X2367Y2179D01*
X2414Y2179D02*
X2441Y2179D01*
X1819Y2178D02*
X1848Y2178D01*
X1893Y2178D02*
X1921Y2178D01*
X2339Y2178D02*
X2368Y2178D01*
X2413Y2178D02*
X2441Y2178D01*
X1819Y2177D02*
X1849Y2177D01*
X1892Y2177D02*
X1921Y2177D01*
X2339Y2177D02*
X2369Y2177D01*
X2412Y2177D02*
X2441Y2177D01*
X1819Y2176D02*
X1850Y2176D01*
X1891Y2176D02*
X1921Y2176D01*
X2339Y2176D02*
X2370Y2176D01*
X2410Y2176D02*
X2441Y2176D01*
X1819Y2175D02*
X1851Y2175D01*
X1889Y2175D02*
X1921Y2175D01*
X2339Y2175D02*
X2371Y2175D01*
X2409Y2175D02*
X2441Y2175D01*
X1819Y2174D02*
X1853Y2174D01*
X1888Y2174D02*
X1921Y2174D01*
X2339Y2174D02*
X2372Y2174D01*
X2408Y2174D02*
X2441Y2174D01*
X1819Y2173D02*
X1854Y2173D01*
X1886Y2173D02*
X1921Y2173D01*
X2339Y2173D02*
X2374Y2173D01*
X2406Y2173D02*
X2441Y2173D01*
X1819Y2172D02*
X1856Y2172D01*
X1884Y2172D02*
X1921Y2172D01*
X2339Y2172D02*
X2376Y2172D01*
X2404Y2172D02*
X2441Y2172D01*
X1819Y2171D02*
X1858Y2171D01*
X1882Y2171D02*
X1921Y2171D01*
X2339Y2171D02*
X2378Y2171D01*
X2402Y2171D02*
X2441Y2171D01*
X1819Y2170D02*
X1862Y2170D01*
X1879Y2170D02*
X1921Y2170D01*
X2339Y2170D02*
X2382Y2170D01*
X2399Y2170D02*
X2441Y2170D01*
X1819Y2169D02*
X1921Y2169D01*
X2339Y2169D02*
X2441Y2169D01*
X1819Y2168D02*
X1921Y2168D01*
X2339Y2168D02*
X2441Y2168D01*
X1819Y2167D02*
X1921Y2167D01*
X2339Y2167D02*
X2441Y2167D01*
X1819Y2166D02*
X1921Y2166D01*
X2339Y2166D02*
X2441Y2166D01*
X1819Y2165D02*
X1921Y2165D01*
X2339Y2165D02*
X2441Y2165D01*
X1819Y2164D02*
X1921Y2164D01*
X2339Y2164D02*
X2441Y2164D01*
X1819Y2163D02*
X1921Y2163D01*
X2339Y2163D02*
X2441Y2163D01*
X1819Y2162D02*
X1921Y2162D01*
X2339Y2162D02*
X2441Y2162D01*
X1819Y2161D02*
X1921Y2161D01*
X2339Y2161D02*
X2441Y2161D01*
X1819Y2160D02*
X1921Y2160D01*
X2339Y2160D02*
X2441Y2160D01*
X1819Y2159D02*
X1921Y2159D01*
X2339Y2159D02*
X2441Y2159D01*
X1819Y2158D02*
X1921Y2158D01*
X2339Y2158D02*
X2441Y2158D01*
X1819Y2157D02*
X1921Y2157D01*
X2339Y2157D02*
X2441Y2157D01*
X1819Y2156D02*
X1921Y2156D01*
X2339Y2156D02*
X2441Y2156D01*
X1819Y2155D02*
X1921Y2155D01*
X2339Y2155D02*
X2441Y2155D01*
X1819Y2154D02*
X1921Y2154D01*
X2339Y2154D02*
X2441Y2154D01*
X1819Y2153D02*
X1921Y2153D01*
X2339Y2153D02*
X2441Y2153D01*
X1819Y2152D02*
X1921Y2152D01*
X2339Y2152D02*
X2441Y2152D01*
X1819Y2151D02*
X1921Y2151D01*
X2339Y2151D02*
X2441Y2151D01*
X1819Y2150D02*
X1921Y2150D01*
X2339Y2150D02*
X2441Y2150D01*
X1820Y2149D02*
X1921Y2149D01*
X2340Y2149D02*
X2441Y2149D01*
D02*
G04 End of Mask1*
M02*