; NON-PLATED HOLES START AT T1
; THROUGH (PLATED) HOLES START AT T100
M48
INCH
T1C0.125984
T100C0.027000
T101C0.100000
T102C0.073000
T103C0.031497
T104C0.030000
T105C0.047244
T106C0.118100
T107C0.031555
T108C0.031496
T109C0.042000
T110C0.040000
T111C0.035000
T112C0.038000
%
T1
X001010Y024482
X030208Y024482
X001168Y001087
X030089Y001285
T100
X008154Y022982
X007154Y022982
T101
X003010Y004482
X004210Y002582
T102
X023910Y022000
X018710Y022000
T103
X017710Y019700
X012708Y009508
X011724Y009508
X016725Y019700
T104
X012148Y011995
X015005Y007729
X005010Y008484
X005692Y011982
X015005Y008730
X016931Y008681
X016931Y007679
X005010Y007482
X012148Y010993
X004690Y011982
T105
X030169Y009277
X030169Y021956
X025247Y019987
X030169Y019987
X030247Y005977
X025247Y009277
X025247Y021956
X025247Y016719
X025326Y004008
X030169Y016719
X025326Y005977
X025247Y014751
X030169Y011245
X025247Y011245
X030247Y004008
X030169Y014751
T106
X005410Y004482
T107
X016917Y012183
T108
X014986Y012182
T109
X012894Y005000
X012894Y006000
X012894Y004000
T110
X022426Y003458
X019670Y003458
X021048Y003458
T111
X017010Y014482
X016024Y005166
X014010Y017482
X013372Y022858
X010372Y022858
X019010Y014482
X011010Y017482
X004215Y017022
X023366Y006482
X021010Y017482
X003010Y019482
X002010Y008482
X019418Y008482
X019418Y010482
X013372Y019858
X010372Y021858
X005987Y017022
X017010Y017482
X012010Y014482
X008010Y014482
X023418Y008482
X005010Y019482
X008010Y017482
X013010Y017482
X018010Y014482
X023418Y010482
X010010Y017482
X002010Y007482
X006738Y012008
X010372Y020858
X010010Y014482
X004215Y014463
X011010Y014482
X016010Y017482
X010738Y012008
X020010Y017482
X005010Y023482
X013010Y014482
X023418Y012482
X018010Y017482
X021010Y014482
X005987Y014463
X019418Y012482
X010372Y019858
X013372Y021858
X006013Y009480
X015010Y017482
X014010Y014482
X010013Y009480
X019010Y017482
X016010Y014482
X009010Y017482
X015347Y023691
X009010Y014482
X015010Y014482
X012010Y017482
X019366Y006482
X013372Y020858
X003010Y023482
X016024Y004166
X015347Y019691
X020010Y014482
T112
X002124Y012016
X002124Y017016
X002124Y016016
X002124Y015016
X002124Y013016
X002124Y014016
T00
M30
