G04 MADE WITH FRITZING*
G04 WWW.FRITZING.ORG*
G04 DOUBLE SIDED*
G04 HOLES PLATED*
G04 CONTOUR ON CENTER OF CONTOUR VECTOR*
%ASAXBY*%
%FSLAX23Y23*%
%MOIN*%
%OFA0B0*%
%SFA1.0B1.0*%
%ADD10C,0.283590X0.26759*%
%ADD11C,0.051181X-0.0039371*%
%ADD12R,3.149610X2.559060X3.133610X2.543060*%
%ADD13C,0.008000*%
%ADD14R,0.001000X0.001000*%
%LNSILK0*%
G90*
G70*
G54D10*
X2771Y2097D03*
G54D11*
X2948Y2274D03*
X2594Y2274D03*
X2594Y1920D03*
X2948Y1920D03*
G54D10*
X2771Y1574D03*
G54D11*
X2948Y1751D03*
X2594Y1751D03*
X2594Y1396D03*
X2948Y1396D03*
G54D10*
X2779Y499D03*
G54D11*
X2956Y676D03*
X2602Y676D03*
X2602Y322D03*
X2956Y322D03*
G54D10*
X2771Y1026D03*
G54D11*
X2948Y1203D03*
X2594Y1203D03*
X2594Y849D03*
X2948Y849D03*
G54D13*
X4Y2555D02*
X3146Y2555D01*
X3146Y4D01*
X4Y4D01*
X4Y2555D01*
D02*
X3007Y2255D02*
X3007Y2294D01*
D02*
X2968Y2333D02*
X2574Y2333D01*
D02*
X2535Y2294D02*
X2535Y2255D01*
D02*
X2535Y2137D02*
X2535Y2058D01*
D02*
X2535Y1940D02*
X2535Y1900D01*
D02*
X2574Y1861D02*
X2968Y1861D01*
D02*
X3007Y1900D02*
X3007Y1940D01*
D02*
X3007Y2058D02*
X3007Y2137D01*
D02*
X3007Y1731D02*
X3007Y1770D01*
D02*
X2968Y1810D02*
X2574Y1810D01*
D02*
X2535Y1770D02*
X2535Y1731D01*
D02*
X2535Y1613D02*
X2535Y1534D01*
D02*
X2535Y1416D02*
X2535Y1377D01*
D02*
X2574Y1337D02*
X2968Y1337D01*
D02*
X3007Y1377D02*
X3007Y1416D01*
D02*
X3007Y1534D02*
X3007Y1613D01*
D02*
X3015Y657D02*
X3015Y696D01*
D02*
X2976Y736D02*
X2582Y736D01*
D02*
X2542Y696D02*
X2542Y657D01*
D02*
X2542Y539D02*
X2542Y460D01*
D02*
X2542Y342D02*
X2542Y302D01*
D02*
X2582Y263D02*
X2976Y263D01*
D02*
X3015Y302D02*
X3015Y342D01*
D02*
X3015Y460D02*
X3015Y539D01*
D02*
X3007Y1184D02*
X3007Y1223D01*
D02*
X2968Y1262D02*
X2574Y1262D01*
D02*
X2535Y1223D02*
X2535Y1184D01*
D02*
X2535Y1066D02*
X2535Y987D01*
D02*
X2535Y869D02*
X2535Y829D01*
D02*
X2574Y790D02*
X2968Y790D01*
D02*
X3007Y829D02*
X3007Y869D01*
D02*
X3007Y987D02*
X3007Y1066D01*
G54D14*
X2565Y2337D02*
X2573Y2337D01*
X2967Y2337D02*
X2975Y2337D01*
X2561Y2336D02*
X2573Y2336D01*
X2967Y2336D02*
X2979Y2336D01*
X2558Y2335D02*
X2573Y2335D01*
X2967Y2335D02*
X2981Y2335D01*
X2556Y2334D02*
X2573Y2334D01*
X2967Y2334D02*
X2984Y2334D01*
X2554Y2333D02*
X2573Y2333D01*
X2967Y2333D02*
X2986Y2333D01*
X2552Y2332D02*
X2573Y2332D01*
X2967Y2332D02*
X2988Y2332D01*
X2550Y2331D02*
X2573Y2331D01*
X2967Y2331D02*
X2989Y2331D01*
X2549Y2330D02*
X2572Y2330D01*
X2967Y2330D02*
X2991Y2330D01*
X2547Y2329D02*
X2564Y2329D01*
X2975Y2329D02*
X2992Y2329D01*
X2546Y2328D02*
X2561Y2328D01*
X2979Y2328D02*
X2994Y2328D01*
X2545Y2327D02*
X2558Y2327D01*
X2981Y2327D02*
X2995Y2327D01*
X2544Y2326D02*
X2556Y2326D01*
X2983Y2326D02*
X2996Y2326D01*
X2543Y2325D02*
X2555Y2325D01*
X2985Y2325D02*
X2997Y2325D01*
X2542Y2324D02*
X2553Y2324D01*
X2987Y2324D02*
X2998Y2324D01*
X2541Y2323D02*
X2552Y2323D01*
X2988Y2323D02*
X2999Y2323D01*
X2540Y2322D02*
X2550Y2322D01*
X2989Y2322D02*
X3000Y2322D01*
X2539Y2321D02*
X2549Y2321D01*
X2991Y2321D02*
X3000Y2321D01*
X2538Y2320D02*
X2548Y2320D01*
X2992Y2320D02*
X3001Y2320D01*
X2538Y2319D02*
X2547Y2319D01*
X2993Y2319D02*
X3002Y2319D01*
X2537Y2318D02*
X2546Y2318D01*
X2994Y2318D02*
X3002Y2318D01*
X2537Y2317D02*
X2545Y2317D01*
X2994Y2317D02*
X3003Y2317D01*
X2536Y2316D02*
X2544Y2316D01*
X2995Y2316D02*
X3004Y2316D01*
X2535Y2315D02*
X2544Y2315D01*
X2996Y2315D02*
X3004Y2315D01*
X2535Y2314D02*
X2543Y2314D01*
X2997Y2314D02*
X3005Y2314D01*
X2534Y2313D02*
X2542Y2313D01*
X2997Y2313D02*
X3005Y2313D01*
X2534Y2312D02*
X2542Y2312D01*
X2998Y2312D02*
X3006Y2312D01*
X2533Y2311D02*
X2541Y2311D01*
X2998Y2311D02*
X3006Y2311D01*
X2533Y2310D02*
X2541Y2310D01*
X2999Y2310D02*
X3007Y2310D01*
X2533Y2309D02*
X2540Y2309D01*
X2999Y2309D02*
X3007Y2309D01*
X2532Y2308D02*
X2540Y2308D01*
X3000Y2308D02*
X3007Y2308D01*
X2428Y2307D02*
X2446Y2307D01*
X2472Y2307D02*
X2492Y2307D01*
X2532Y2307D02*
X2539Y2307D01*
X3000Y2307D02*
X3008Y2307D01*
X2428Y2306D02*
X2447Y2306D01*
X2469Y2306D02*
X2494Y2306D01*
X2532Y2306D02*
X2539Y2306D01*
X3001Y2306D02*
X3008Y2306D01*
X2428Y2305D02*
X2448Y2305D01*
X2468Y2305D02*
X2496Y2305D01*
X2532Y2305D02*
X2539Y2305D01*
X3001Y2305D02*
X3008Y2305D01*
X2428Y2304D02*
X2448Y2304D01*
X2467Y2304D02*
X2496Y2304D01*
X2531Y2304D02*
X2538Y2304D01*
X3001Y2304D02*
X3008Y2304D01*
X2428Y2303D02*
X2448Y2303D01*
X2466Y2303D02*
X2497Y2303D01*
X2531Y2303D02*
X2538Y2303D01*
X3001Y2303D02*
X3009Y2303D01*
X2428Y2302D02*
X2447Y2302D01*
X2465Y2302D02*
X2498Y2302D01*
X2531Y2302D02*
X2538Y2302D01*
X3002Y2302D02*
X3009Y2302D01*
X2428Y2301D02*
X2446Y2301D01*
X2465Y2301D02*
X2498Y2301D01*
X2531Y2301D02*
X2538Y2301D01*
X3002Y2301D02*
X3009Y2301D01*
X2428Y2300D02*
X2434Y2300D01*
X2465Y2300D02*
X2472Y2300D01*
X2492Y2300D02*
X2498Y2300D01*
X2531Y2300D02*
X2538Y2300D01*
X3002Y2300D02*
X3009Y2300D01*
X2428Y2299D02*
X2434Y2299D01*
X2465Y2299D02*
X2471Y2299D01*
X2492Y2299D02*
X2498Y2299D01*
X2530Y2299D02*
X2537Y2299D01*
X3002Y2299D02*
X3009Y2299D01*
X2428Y2298D02*
X2434Y2298D01*
X2464Y2298D02*
X2470Y2298D01*
X2491Y2298D02*
X2498Y2298D01*
X2530Y2298D02*
X2537Y2298D01*
X3002Y2298D02*
X3009Y2298D01*
X2428Y2297D02*
X2434Y2297D01*
X2465Y2297D02*
X2470Y2297D01*
X2490Y2297D02*
X2498Y2297D01*
X2530Y2297D02*
X2537Y2297D01*
X3002Y2297D02*
X3009Y2297D01*
X2428Y2296D02*
X2434Y2296D01*
X2465Y2296D02*
X2470Y2296D01*
X2490Y2296D02*
X2497Y2296D01*
X2530Y2296D02*
X2537Y2296D01*
X3002Y2296D02*
X3009Y2296D01*
X2428Y2295D02*
X2434Y2295D01*
X2466Y2295D02*
X2469Y2295D01*
X2489Y2295D02*
X2497Y2295D01*
X2530Y2295D02*
X2537Y2295D01*
X3002Y2295D02*
X3009Y2295D01*
X2428Y2294D02*
X2434Y2294D01*
X2488Y2294D02*
X2496Y2294D01*
X2428Y2293D02*
X2434Y2293D01*
X2487Y2293D02*
X2495Y2293D01*
X2428Y2292D02*
X2434Y2292D01*
X2486Y2292D02*
X2494Y2292D01*
X2428Y2291D02*
X2434Y2291D01*
X2486Y2291D02*
X2494Y2291D01*
X2428Y2290D02*
X2434Y2290D01*
X2485Y2290D02*
X2493Y2290D01*
X2428Y2289D02*
X2434Y2289D01*
X2484Y2289D02*
X2492Y2289D01*
X2428Y2288D02*
X2434Y2288D01*
X2483Y2288D02*
X2491Y2288D01*
X2428Y2287D02*
X2434Y2287D01*
X2483Y2287D02*
X2491Y2287D01*
X2428Y2286D02*
X2434Y2286D01*
X2482Y2286D02*
X2490Y2286D01*
X2428Y2285D02*
X2434Y2285D01*
X2481Y2285D02*
X2489Y2285D01*
X2428Y2284D02*
X2434Y2284D01*
X2480Y2284D02*
X2488Y2284D01*
X2428Y2283D02*
X2434Y2283D01*
X2479Y2283D02*
X2487Y2283D01*
X2428Y2282D02*
X2434Y2282D01*
X2479Y2282D02*
X2487Y2282D01*
X2428Y2281D02*
X2434Y2281D01*
X2478Y2281D02*
X2486Y2281D01*
X2428Y2280D02*
X2434Y2280D01*
X2477Y2280D02*
X2485Y2280D01*
X2428Y2279D02*
X2434Y2279D01*
X2476Y2279D02*
X2484Y2279D01*
X2428Y2278D02*
X2434Y2278D01*
X2476Y2278D02*
X2484Y2278D01*
X2416Y2277D02*
X2419Y2277D01*
X2428Y2277D02*
X2434Y2277D01*
X2475Y2277D02*
X2483Y2277D01*
X2415Y2276D02*
X2420Y2276D01*
X2428Y2276D02*
X2434Y2276D01*
X2474Y2276D02*
X2482Y2276D01*
X2414Y2275D02*
X2420Y2275D01*
X2428Y2275D02*
X2434Y2275D01*
X2473Y2275D02*
X2481Y2275D01*
X2414Y2274D02*
X2420Y2274D01*
X2428Y2274D02*
X2434Y2274D01*
X2472Y2274D02*
X2480Y2274D01*
X2414Y2273D02*
X2420Y2273D01*
X2428Y2273D02*
X2434Y2273D01*
X2472Y2273D02*
X2480Y2273D01*
X2414Y2272D02*
X2420Y2272D01*
X2428Y2272D02*
X2434Y2272D01*
X2471Y2272D02*
X2479Y2272D01*
X2414Y2271D02*
X2420Y2271D01*
X2428Y2271D02*
X2434Y2271D01*
X2470Y2271D02*
X2478Y2271D01*
X2414Y2270D02*
X2420Y2270D01*
X2428Y2270D02*
X2434Y2270D01*
X2469Y2270D02*
X2477Y2270D01*
X2414Y2269D02*
X2420Y2269D01*
X2428Y2269D02*
X2434Y2269D01*
X2469Y2269D02*
X2477Y2269D01*
X2414Y2268D02*
X2420Y2268D01*
X2428Y2268D02*
X2434Y2268D01*
X2468Y2268D02*
X2476Y2268D01*
X2414Y2267D02*
X2420Y2267D01*
X2428Y2267D02*
X2434Y2267D01*
X2467Y2267D02*
X2475Y2267D01*
X2414Y2266D02*
X2420Y2266D01*
X2428Y2266D02*
X2434Y2266D01*
X2466Y2266D02*
X2474Y2266D01*
X2414Y2265D02*
X2420Y2265D01*
X2428Y2265D02*
X2434Y2265D01*
X2466Y2265D02*
X2474Y2265D01*
X2493Y2265D02*
X2497Y2265D01*
X2414Y2264D02*
X2420Y2264D01*
X2428Y2264D02*
X2434Y2264D01*
X2465Y2264D02*
X2473Y2264D01*
X2492Y2264D02*
X2498Y2264D01*
X2414Y2263D02*
X2420Y2263D01*
X2428Y2263D02*
X2434Y2263D01*
X2465Y2263D02*
X2472Y2263D01*
X2492Y2263D02*
X2498Y2263D01*
X2414Y2262D02*
X2420Y2262D01*
X2428Y2262D02*
X2434Y2262D01*
X2464Y2262D02*
X2471Y2262D01*
X2492Y2262D02*
X2498Y2262D01*
X2414Y2261D02*
X2420Y2261D01*
X2428Y2261D02*
X2434Y2261D01*
X2464Y2261D02*
X2471Y2261D01*
X2491Y2261D02*
X2498Y2261D01*
X2414Y2260D02*
X2445Y2260D01*
X2465Y2260D02*
X2498Y2260D01*
X2414Y2259D02*
X2447Y2259D01*
X2465Y2259D02*
X2497Y2259D01*
X2414Y2258D02*
X2447Y2258D01*
X2465Y2258D02*
X2497Y2258D01*
X2414Y2257D02*
X2448Y2257D01*
X2466Y2257D02*
X2496Y2257D01*
X2414Y2256D02*
X2448Y2256D01*
X2466Y2256D02*
X2495Y2256D01*
X2415Y2255D02*
X2447Y2255D01*
X2467Y2255D02*
X2494Y2255D01*
X2416Y2254D02*
X2447Y2254D01*
X2469Y2254D02*
X2493Y2254D01*
X2530Y1900D02*
X2537Y1900D01*
X3002Y1900D02*
X3009Y1900D01*
X2530Y1899D02*
X2537Y1899D01*
X3002Y1899D02*
X3009Y1899D01*
X2530Y1898D02*
X2537Y1898D01*
X3002Y1898D02*
X3009Y1898D01*
X2530Y1897D02*
X2537Y1897D01*
X3002Y1897D02*
X3009Y1897D01*
X2530Y1896D02*
X2537Y1896D01*
X3002Y1896D02*
X3009Y1896D01*
X2531Y1895D02*
X2538Y1895D01*
X3002Y1895D02*
X3009Y1895D01*
X2531Y1894D02*
X2538Y1894D01*
X3002Y1894D02*
X3009Y1894D01*
X2531Y1893D02*
X2538Y1893D01*
X3002Y1893D02*
X3009Y1893D01*
X2531Y1892D02*
X2538Y1892D01*
X3001Y1892D02*
X3009Y1892D01*
X2531Y1891D02*
X2538Y1891D01*
X3001Y1891D02*
X3008Y1891D01*
X2532Y1890D02*
X2539Y1890D01*
X3001Y1890D02*
X3008Y1890D01*
X2532Y1889D02*
X2539Y1889D01*
X3000Y1889D02*
X3008Y1889D01*
X2532Y1888D02*
X2539Y1888D01*
X3000Y1888D02*
X3007Y1888D01*
X2532Y1887D02*
X2540Y1887D01*
X3000Y1887D02*
X3007Y1887D01*
X2533Y1886D02*
X2540Y1886D01*
X2999Y1886D02*
X3007Y1886D01*
X2533Y1885D02*
X2541Y1885D01*
X2999Y1885D02*
X3006Y1885D01*
X2534Y1884D02*
X2541Y1884D01*
X2998Y1884D02*
X3006Y1884D01*
X2534Y1883D02*
X2542Y1883D01*
X2998Y1883D02*
X3006Y1883D01*
X2535Y1882D02*
X2543Y1882D01*
X2997Y1882D02*
X3005Y1882D01*
X2535Y1881D02*
X2543Y1881D01*
X2996Y1881D02*
X3005Y1881D01*
X2536Y1880D02*
X2544Y1880D01*
X2996Y1880D02*
X3004Y1880D01*
X2536Y1879D02*
X2545Y1879D01*
X2995Y1879D02*
X3003Y1879D01*
X2537Y1878D02*
X2545Y1878D01*
X2994Y1878D02*
X3003Y1878D01*
X2537Y1877D02*
X2546Y1877D01*
X2993Y1877D02*
X3002Y1877D01*
X2538Y1876D02*
X2547Y1876D01*
X2992Y1876D02*
X3002Y1876D01*
X2539Y1875D02*
X2548Y1875D01*
X2991Y1875D02*
X3001Y1875D01*
X2539Y1874D02*
X2549Y1874D01*
X2990Y1874D02*
X3000Y1874D01*
X2540Y1873D02*
X2551Y1873D01*
X2989Y1873D02*
X2999Y1873D01*
X2541Y1872D02*
X2552Y1872D01*
X2988Y1872D02*
X2998Y1872D01*
X2542Y1871D02*
X2553Y1871D01*
X2986Y1871D02*
X2998Y1871D01*
X2543Y1870D02*
X2555Y1870D01*
X2985Y1870D02*
X2997Y1870D01*
X2544Y1869D02*
X2557Y1869D01*
X2983Y1869D02*
X2995Y1869D01*
X2545Y1868D02*
X2559Y1868D01*
X2980Y1868D02*
X2994Y1868D01*
X2546Y1867D02*
X2562Y1867D01*
X2978Y1867D02*
X2993Y1867D01*
X2548Y1866D02*
X2566Y1866D01*
X2973Y1866D02*
X2992Y1866D01*
X2549Y1865D02*
X2572Y1865D01*
X2967Y1865D02*
X2990Y1865D01*
X2551Y1864D02*
X2573Y1864D01*
X2967Y1864D02*
X2989Y1864D01*
X2552Y1863D02*
X2573Y1863D01*
X2967Y1863D02*
X2987Y1863D01*
X2554Y1862D02*
X2573Y1862D01*
X2967Y1862D02*
X2985Y1862D01*
X2557Y1861D02*
X2573Y1861D01*
X2967Y1861D02*
X2983Y1861D01*
X2559Y1860D02*
X2573Y1860D01*
X2967Y1860D02*
X2980Y1860D01*
X2562Y1859D02*
X2573Y1859D01*
X2967Y1859D02*
X2977Y1859D01*
X2567Y1858D02*
X2573Y1858D01*
X2967Y1858D02*
X2972Y1858D01*
X2569Y1814D02*
X2572Y1814D01*
X2967Y1814D02*
X2970Y1814D01*
X2564Y1813D02*
X2573Y1813D01*
X2967Y1813D02*
X2976Y1813D01*
X2560Y1812D02*
X2573Y1812D01*
X2967Y1812D02*
X2980Y1812D01*
X2557Y1811D02*
X2573Y1811D01*
X2967Y1811D02*
X2982Y1811D01*
X2555Y1810D02*
X2573Y1810D01*
X2967Y1810D02*
X2985Y1810D01*
X2553Y1809D02*
X2573Y1809D01*
X2967Y1809D02*
X2987Y1809D01*
X2551Y1808D02*
X2573Y1808D01*
X2967Y1808D02*
X2988Y1808D01*
X2550Y1807D02*
X2573Y1807D01*
X2967Y1807D02*
X2990Y1807D01*
X2548Y1806D02*
X2568Y1806D01*
X2971Y1806D02*
X2991Y1806D01*
X2547Y1805D02*
X2563Y1805D01*
X2976Y1805D02*
X2993Y1805D01*
X2546Y1804D02*
X2560Y1804D01*
X2980Y1804D02*
X2994Y1804D01*
X2544Y1803D02*
X2558Y1803D01*
X2982Y1803D02*
X2995Y1803D01*
X2543Y1802D02*
X2556Y1802D01*
X2984Y1802D02*
X2996Y1802D01*
X2542Y1801D02*
X2554Y1801D01*
X2986Y1801D02*
X2997Y1801D01*
X2541Y1800D02*
X2552Y1800D01*
X2987Y1800D02*
X2998Y1800D01*
X2541Y1799D02*
X2551Y1799D01*
X2988Y1799D02*
X2999Y1799D01*
X2540Y1798D02*
X2550Y1798D01*
X2990Y1798D02*
X3000Y1798D01*
X2539Y1797D02*
X2549Y1797D01*
X2991Y1797D02*
X3001Y1797D01*
X2538Y1796D02*
X2548Y1796D01*
X2992Y1796D02*
X3001Y1796D01*
X2538Y1795D02*
X2547Y1795D01*
X2993Y1795D02*
X3002Y1795D01*
X2537Y1794D02*
X2546Y1794D01*
X2994Y1794D02*
X3003Y1794D01*
X2536Y1793D02*
X2545Y1793D01*
X2995Y1793D02*
X3003Y1793D01*
X2536Y1792D02*
X2544Y1792D01*
X2995Y1792D02*
X3004Y1792D01*
X2535Y1791D02*
X2543Y1791D01*
X2996Y1791D02*
X3004Y1791D01*
X2535Y1790D02*
X2543Y1790D01*
X2997Y1790D02*
X3005Y1790D01*
X2534Y1789D02*
X2542Y1789D01*
X2997Y1789D02*
X3005Y1789D01*
X2534Y1788D02*
X2542Y1788D01*
X2998Y1788D02*
X3006Y1788D01*
X2533Y1787D02*
X2541Y1787D01*
X2999Y1787D02*
X3006Y1787D01*
X2533Y1786D02*
X2540Y1786D01*
X2999Y1786D02*
X3007Y1786D01*
X2533Y1785D02*
X2540Y1785D01*
X3000Y1785D02*
X3007Y1785D01*
X2532Y1784D02*
X2540Y1784D01*
X3000Y1784D02*
X3007Y1784D01*
X2532Y1783D02*
X2539Y1783D01*
X3000Y1783D02*
X3008Y1783D01*
X2532Y1782D02*
X2539Y1782D01*
X3001Y1782D02*
X3008Y1782D01*
X2531Y1781D02*
X2539Y1781D01*
X3001Y1781D02*
X3008Y1781D01*
X2531Y1780D02*
X2538Y1780D01*
X3001Y1780D02*
X3008Y1780D01*
X2531Y1779D02*
X2538Y1779D01*
X3002Y1779D02*
X3009Y1779D01*
X2531Y1778D02*
X2538Y1778D01*
X3002Y1778D02*
X3009Y1778D01*
X2531Y1777D02*
X2538Y1777D01*
X3002Y1777D02*
X3009Y1777D01*
X2530Y1776D02*
X2538Y1776D01*
X3002Y1776D02*
X3009Y1776D01*
X2530Y1775D02*
X2537Y1775D01*
X3002Y1775D02*
X3009Y1775D01*
X2530Y1774D02*
X2537Y1774D01*
X3002Y1774D02*
X3009Y1774D01*
X2530Y1773D02*
X2537Y1773D01*
X3002Y1773D02*
X3009Y1773D01*
X2530Y1772D02*
X2537Y1772D01*
X3002Y1772D02*
X3009Y1772D01*
X2530Y1771D02*
X2537Y1771D01*
X3003Y1771D02*
X3009Y1771D01*
X2397Y1767D02*
X2425Y1767D01*
X2449Y1767D02*
X2472Y1767D01*
X2395Y1766D02*
X2425Y1766D01*
X2447Y1766D02*
X2473Y1766D01*
X2394Y1765D02*
X2426Y1765D01*
X2446Y1765D02*
X2474Y1765D01*
X2393Y1764D02*
X2426Y1764D01*
X2445Y1764D02*
X2475Y1764D01*
X2393Y1763D02*
X2426Y1763D01*
X2444Y1763D02*
X2476Y1763D01*
X2393Y1762D02*
X2425Y1762D01*
X2443Y1762D02*
X2476Y1762D01*
X2393Y1761D02*
X2424Y1761D01*
X2443Y1761D02*
X2476Y1761D01*
X2392Y1760D02*
X2398Y1760D01*
X2443Y1760D02*
X2450Y1760D01*
X2470Y1760D02*
X2476Y1760D01*
X2392Y1759D02*
X2398Y1759D01*
X2443Y1759D02*
X2449Y1759D01*
X2470Y1759D02*
X2476Y1759D01*
X2392Y1758D02*
X2398Y1758D01*
X2443Y1758D02*
X2449Y1758D01*
X2469Y1758D02*
X2476Y1758D01*
X2392Y1757D02*
X2398Y1757D01*
X2443Y1757D02*
X2448Y1757D01*
X2468Y1757D02*
X2476Y1757D01*
X2392Y1756D02*
X2398Y1756D01*
X2444Y1756D02*
X2448Y1756D01*
X2468Y1756D02*
X2475Y1756D01*
X2392Y1755D02*
X2398Y1755D01*
X2445Y1755D02*
X2446Y1755D01*
X2467Y1755D02*
X2475Y1755D01*
X2392Y1754D02*
X2398Y1754D01*
X2466Y1754D02*
X2474Y1754D01*
X2392Y1753D02*
X2398Y1753D01*
X2465Y1753D02*
X2473Y1753D01*
X2392Y1752D02*
X2398Y1752D01*
X2464Y1752D02*
X2472Y1752D01*
X2392Y1751D02*
X2398Y1751D01*
X2464Y1751D02*
X2472Y1751D01*
X2392Y1750D02*
X2398Y1750D01*
X2463Y1750D02*
X2471Y1750D01*
X2392Y1749D02*
X2398Y1749D01*
X2462Y1749D02*
X2470Y1749D01*
X2392Y1748D02*
X2398Y1748D01*
X2461Y1748D02*
X2469Y1748D01*
X2392Y1747D02*
X2398Y1747D01*
X2461Y1747D02*
X2469Y1747D01*
X2392Y1746D02*
X2398Y1746D01*
X2460Y1746D02*
X2468Y1746D01*
X2392Y1745D02*
X2398Y1745D01*
X2459Y1745D02*
X2467Y1745D01*
X2392Y1744D02*
X2420Y1744D01*
X2458Y1744D02*
X2466Y1744D01*
X2393Y1743D02*
X2423Y1743D01*
X2457Y1743D02*
X2465Y1743D01*
X2393Y1742D02*
X2424Y1742D01*
X2457Y1742D02*
X2465Y1742D01*
X2393Y1741D02*
X2425Y1741D01*
X2456Y1741D02*
X2464Y1741D01*
X2394Y1740D02*
X2425Y1740D01*
X2455Y1740D02*
X2463Y1740D01*
X2395Y1739D02*
X2426Y1739D01*
X2454Y1739D02*
X2462Y1739D01*
X2396Y1738D02*
X2426Y1738D01*
X2454Y1738D02*
X2462Y1738D01*
X2420Y1737D02*
X2426Y1737D01*
X2453Y1737D02*
X2461Y1737D01*
X2420Y1736D02*
X2426Y1736D01*
X2452Y1736D02*
X2460Y1736D01*
X2420Y1735D02*
X2426Y1735D01*
X2451Y1735D02*
X2459Y1735D01*
X2420Y1734D02*
X2426Y1734D01*
X2450Y1734D02*
X2458Y1734D01*
X2420Y1733D02*
X2426Y1733D01*
X2450Y1733D02*
X2458Y1733D01*
X2420Y1732D02*
X2426Y1732D01*
X2449Y1732D02*
X2457Y1732D01*
X2420Y1731D02*
X2426Y1731D01*
X2448Y1731D02*
X2456Y1731D01*
X2420Y1730D02*
X2426Y1730D01*
X2447Y1730D02*
X2455Y1730D01*
X2420Y1729D02*
X2426Y1729D01*
X2447Y1729D02*
X2455Y1729D01*
X2420Y1728D02*
X2426Y1728D01*
X2446Y1728D02*
X2454Y1728D01*
X2420Y1727D02*
X2426Y1727D01*
X2445Y1727D02*
X2453Y1727D01*
X2420Y1726D02*
X2426Y1726D01*
X2444Y1726D02*
X2452Y1726D01*
X2472Y1726D02*
X2474Y1726D01*
X2420Y1725D02*
X2426Y1725D01*
X2444Y1725D02*
X2451Y1725D01*
X2471Y1725D02*
X2475Y1725D01*
X2420Y1724D02*
X2426Y1724D01*
X2443Y1724D02*
X2451Y1724D01*
X2470Y1724D02*
X2476Y1724D01*
X2420Y1723D02*
X2426Y1723D01*
X2443Y1723D02*
X2450Y1723D01*
X2470Y1723D02*
X2476Y1723D01*
X2420Y1722D02*
X2426Y1722D01*
X2443Y1722D02*
X2449Y1722D01*
X2470Y1722D02*
X2476Y1722D01*
X2420Y1721D02*
X2426Y1721D01*
X2443Y1721D02*
X2449Y1721D01*
X2469Y1721D02*
X2476Y1721D01*
X2394Y1720D02*
X2426Y1720D01*
X2443Y1720D02*
X2476Y1720D01*
X2393Y1719D02*
X2426Y1719D01*
X2443Y1719D02*
X2475Y1719D01*
X2393Y1718D02*
X2426Y1718D01*
X2444Y1718D02*
X2475Y1718D01*
X2393Y1717D02*
X2426Y1717D01*
X2444Y1717D02*
X2474Y1717D01*
X2393Y1716D02*
X2426Y1716D01*
X2445Y1716D02*
X2473Y1716D01*
X2393Y1715D02*
X2426Y1715D01*
X2446Y1715D02*
X2472Y1715D01*
X2394Y1714D02*
X2426Y1714D01*
X2448Y1714D02*
X2470Y1714D01*
X2530Y1377D02*
X2537Y1377D01*
X3003Y1377D02*
X3009Y1377D01*
X2530Y1376D02*
X2537Y1376D01*
X3002Y1376D02*
X3009Y1376D01*
X2530Y1375D02*
X2537Y1375D01*
X3002Y1375D02*
X3009Y1375D01*
X2530Y1374D02*
X2537Y1374D01*
X3002Y1374D02*
X3009Y1374D01*
X2530Y1373D02*
X2537Y1373D01*
X3002Y1373D02*
X3009Y1373D01*
X2530Y1372D02*
X2538Y1372D01*
X3002Y1372D02*
X3009Y1372D01*
X2531Y1371D02*
X2538Y1371D01*
X3002Y1371D02*
X3009Y1371D01*
X2531Y1370D02*
X2538Y1370D01*
X3002Y1370D02*
X3009Y1370D01*
X2531Y1369D02*
X2538Y1369D01*
X3002Y1369D02*
X3009Y1369D01*
X2531Y1368D02*
X2538Y1368D01*
X3001Y1368D02*
X3008Y1368D01*
X2531Y1367D02*
X2539Y1367D01*
X3001Y1367D02*
X3008Y1367D01*
X2532Y1366D02*
X2539Y1366D01*
X3001Y1366D02*
X3008Y1366D01*
X2532Y1365D02*
X2539Y1365D01*
X3000Y1365D02*
X3008Y1365D01*
X2532Y1364D02*
X2540Y1364D01*
X3000Y1364D02*
X3007Y1364D01*
X2533Y1363D02*
X2540Y1363D01*
X3000Y1363D02*
X3007Y1363D01*
X2533Y1362D02*
X2540Y1362D01*
X2999Y1362D02*
X3007Y1362D01*
X2533Y1361D02*
X2541Y1361D01*
X2999Y1361D02*
X3006Y1361D01*
X2534Y1360D02*
X2542Y1360D01*
X2998Y1360D02*
X3006Y1360D01*
X2534Y1359D02*
X2542Y1359D01*
X2997Y1359D02*
X3005Y1359D01*
X2535Y1358D02*
X2543Y1358D01*
X2997Y1358D02*
X3005Y1358D01*
X2535Y1357D02*
X2543Y1357D01*
X2996Y1357D02*
X3004Y1357D01*
X2536Y1356D02*
X2544Y1356D01*
X2995Y1356D02*
X3004Y1356D01*
X2536Y1355D02*
X2545Y1355D01*
X2995Y1355D02*
X3003Y1355D01*
X2537Y1354D02*
X2546Y1354D01*
X2994Y1354D02*
X3003Y1354D01*
X2538Y1353D02*
X2547Y1353D01*
X2993Y1353D02*
X3002Y1353D01*
X2538Y1352D02*
X2548Y1352D01*
X2992Y1352D02*
X3001Y1352D01*
X2539Y1351D02*
X2549Y1351D01*
X2991Y1351D02*
X3001Y1351D01*
X2540Y1350D02*
X2550Y1350D01*
X2990Y1350D02*
X3000Y1350D01*
X2541Y1349D02*
X2551Y1349D01*
X2989Y1349D02*
X2999Y1349D01*
X2541Y1348D02*
X2552Y1348D01*
X2987Y1348D02*
X2998Y1348D01*
X2542Y1347D02*
X2554Y1347D01*
X2986Y1347D02*
X2997Y1347D01*
X2543Y1346D02*
X2556Y1346D01*
X2984Y1346D02*
X2996Y1346D01*
X2544Y1345D02*
X2558Y1345D01*
X2982Y1345D02*
X2995Y1345D01*
X2546Y1344D02*
X2560Y1344D01*
X2980Y1344D02*
X2994Y1344D01*
X2547Y1343D02*
X2563Y1343D01*
X2976Y1343D02*
X2993Y1343D01*
X2548Y1342D02*
X2569Y1342D01*
X2971Y1342D02*
X2991Y1342D01*
X2550Y1341D02*
X2573Y1341D01*
X2967Y1341D02*
X2990Y1341D01*
X2551Y1340D02*
X2573Y1340D01*
X2967Y1340D02*
X2988Y1340D01*
X2553Y1339D02*
X2573Y1339D01*
X2967Y1339D02*
X2987Y1339D01*
X2555Y1338D02*
X2573Y1338D01*
X2967Y1338D02*
X2985Y1338D01*
X2557Y1337D02*
X2573Y1337D01*
X2967Y1337D02*
X2982Y1337D01*
X2560Y1336D02*
X2573Y1336D01*
X2967Y1336D02*
X2980Y1336D01*
X2564Y1335D02*
X2573Y1335D01*
X2967Y1335D02*
X2976Y1335D01*
X2569Y1334D02*
X2572Y1334D01*
X2967Y1334D02*
X2970Y1334D01*
X2565Y1266D02*
X2573Y1266D01*
X2967Y1266D02*
X2974Y1266D01*
X2561Y1265D02*
X2573Y1265D01*
X2967Y1265D02*
X2978Y1265D01*
X2558Y1264D02*
X2573Y1264D01*
X2967Y1264D02*
X2981Y1264D01*
X2556Y1263D02*
X2573Y1263D01*
X2967Y1263D02*
X2984Y1263D01*
X2554Y1262D02*
X2573Y1262D01*
X2967Y1262D02*
X2986Y1262D01*
X2552Y1261D02*
X2573Y1261D01*
X2967Y1261D02*
X2988Y1261D01*
X2550Y1260D02*
X2573Y1260D01*
X2967Y1260D02*
X2989Y1260D01*
X2549Y1259D02*
X2572Y1259D01*
X2967Y1259D02*
X2991Y1259D01*
X2547Y1258D02*
X2565Y1258D01*
X2975Y1258D02*
X2992Y1258D01*
X2546Y1257D02*
X2561Y1257D01*
X2979Y1257D02*
X2994Y1257D01*
X2545Y1256D02*
X2558Y1256D01*
X2981Y1256D02*
X2995Y1256D01*
X2544Y1255D02*
X2556Y1255D01*
X2983Y1255D02*
X2996Y1255D01*
X2543Y1254D02*
X2555Y1254D01*
X2985Y1254D02*
X2997Y1254D01*
X2542Y1253D02*
X2553Y1253D01*
X2987Y1253D02*
X2998Y1253D01*
X2541Y1252D02*
X2552Y1252D01*
X2988Y1252D02*
X2999Y1252D01*
X2540Y1251D02*
X2550Y1251D01*
X2989Y1251D02*
X3000Y1251D01*
X2539Y1250D02*
X2549Y1250D01*
X2990Y1250D02*
X3000Y1250D01*
X2539Y1249D02*
X2548Y1249D01*
X2992Y1249D02*
X3001Y1249D01*
X2538Y1248D02*
X2547Y1248D01*
X2993Y1248D02*
X3002Y1248D01*
X2537Y1247D02*
X2546Y1247D01*
X2993Y1247D02*
X3002Y1247D01*
X2537Y1246D02*
X2545Y1246D01*
X2994Y1246D02*
X3003Y1246D01*
X2536Y1245D02*
X2544Y1245D01*
X2995Y1245D02*
X3004Y1245D01*
X2535Y1244D02*
X2544Y1244D01*
X2996Y1244D02*
X3004Y1244D01*
X2535Y1243D02*
X2543Y1243D01*
X2997Y1243D02*
X3005Y1243D01*
X2534Y1242D02*
X2542Y1242D01*
X2997Y1242D02*
X3005Y1242D01*
X2534Y1241D02*
X2542Y1241D01*
X2998Y1241D02*
X3006Y1241D01*
X2533Y1240D02*
X2541Y1240D01*
X2998Y1240D02*
X3006Y1240D01*
X2533Y1239D02*
X2541Y1239D01*
X2999Y1239D02*
X3006Y1239D01*
X2533Y1238D02*
X2540Y1238D01*
X2999Y1238D02*
X3007Y1238D01*
X2532Y1237D02*
X2540Y1237D01*
X3000Y1237D02*
X3007Y1237D01*
X2532Y1236D02*
X2539Y1236D01*
X3000Y1236D02*
X3008Y1236D01*
X2532Y1235D02*
X2539Y1235D01*
X3001Y1235D02*
X3008Y1235D01*
X2532Y1234D02*
X2539Y1234D01*
X3001Y1234D02*
X3008Y1234D01*
X2531Y1233D02*
X2538Y1233D01*
X3001Y1233D02*
X3008Y1233D01*
X2531Y1232D02*
X2538Y1232D01*
X3001Y1232D02*
X3009Y1232D01*
X2531Y1231D02*
X2538Y1231D01*
X3002Y1231D02*
X3009Y1231D01*
X2531Y1230D02*
X2538Y1230D01*
X3002Y1230D02*
X3009Y1230D01*
X2531Y1229D02*
X2538Y1229D01*
X3002Y1229D02*
X3009Y1229D01*
X2530Y1228D02*
X2537Y1228D01*
X3002Y1228D02*
X3009Y1228D01*
X2530Y1227D02*
X2537Y1227D01*
X3002Y1227D02*
X3009Y1227D01*
X2387Y1226D02*
X2415Y1226D01*
X2439Y1226D02*
X2462Y1226D01*
X2530Y1226D02*
X2537Y1226D01*
X3002Y1226D02*
X3009Y1226D01*
X2385Y1225D02*
X2416Y1225D01*
X2437Y1225D02*
X2464Y1225D01*
X2530Y1225D02*
X2537Y1225D01*
X3002Y1225D02*
X3009Y1225D01*
X2384Y1224D02*
X2416Y1224D01*
X2436Y1224D02*
X2465Y1224D01*
X2530Y1224D02*
X2537Y1224D01*
X3002Y1224D02*
X3009Y1224D01*
X2384Y1223D02*
X2416Y1223D01*
X2435Y1223D02*
X2465Y1223D01*
X2383Y1222D02*
X2416Y1222D01*
X2434Y1222D02*
X2466Y1222D01*
X2383Y1221D02*
X2416Y1221D01*
X2434Y1221D02*
X2466Y1221D01*
X2383Y1220D02*
X2414Y1220D01*
X2433Y1220D02*
X2466Y1220D01*
X2383Y1219D02*
X2389Y1219D01*
X2433Y1219D02*
X2440Y1219D01*
X2461Y1219D02*
X2467Y1219D01*
X2383Y1218D02*
X2389Y1218D01*
X2433Y1218D02*
X2439Y1218D01*
X2460Y1218D02*
X2466Y1218D01*
X2383Y1217D02*
X2389Y1217D01*
X2433Y1217D02*
X2439Y1217D01*
X2459Y1217D02*
X2466Y1217D01*
X2383Y1216D02*
X2389Y1216D01*
X2433Y1216D02*
X2439Y1216D01*
X2459Y1216D02*
X2466Y1216D01*
X2383Y1215D02*
X2389Y1215D01*
X2434Y1215D02*
X2438Y1215D01*
X2458Y1215D02*
X2466Y1215D01*
X2383Y1214D02*
X2389Y1214D01*
X2435Y1214D02*
X2437Y1214D01*
X2457Y1214D02*
X2465Y1214D01*
X2383Y1213D02*
X2389Y1213D01*
X2456Y1213D02*
X2464Y1213D01*
X2383Y1212D02*
X2389Y1212D01*
X2456Y1212D02*
X2464Y1212D01*
X2383Y1211D02*
X2389Y1211D01*
X2455Y1211D02*
X2463Y1211D01*
X2383Y1210D02*
X2389Y1210D01*
X2454Y1210D02*
X2462Y1210D01*
X2383Y1209D02*
X2389Y1209D01*
X2453Y1209D02*
X2461Y1209D01*
X2383Y1208D02*
X2389Y1208D01*
X2452Y1208D02*
X2460Y1208D01*
X2383Y1207D02*
X2389Y1207D01*
X2452Y1207D02*
X2460Y1207D01*
X2383Y1206D02*
X2389Y1206D01*
X2451Y1206D02*
X2459Y1206D01*
X2383Y1205D02*
X2389Y1205D01*
X2450Y1205D02*
X2458Y1205D01*
X2383Y1204D02*
X2390Y1204D01*
X2449Y1204D02*
X2457Y1204D01*
X2383Y1203D02*
X2407Y1203D01*
X2449Y1203D02*
X2457Y1203D01*
X2384Y1202D02*
X2409Y1202D01*
X2448Y1202D02*
X2456Y1202D01*
X2385Y1201D02*
X2409Y1201D01*
X2447Y1201D02*
X2455Y1201D01*
X2385Y1200D02*
X2409Y1200D01*
X2446Y1200D02*
X2454Y1200D01*
X2385Y1199D02*
X2409Y1199D01*
X2445Y1199D02*
X2453Y1199D01*
X2384Y1198D02*
X2409Y1198D01*
X2445Y1198D02*
X2453Y1198D01*
X2384Y1197D02*
X2408Y1197D01*
X2444Y1197D02*
X2452Y1197D01*
X2383Y1196D02*
X2392Y1196D01*
X2443Y1196D02*
X2451Y1196D01*
X2383Y1195D02*
X2390Y1195D01*
X2442Y1195D02*
X2450Y1195D01*
X2383Y1194D02*
X2389Y1194D01*
X2442Y1194D02*
X2450Y1194D01*
X2383Y1193D02*
X2389Y1193D01*
X2441Y1193D02*
X2449Y1193D01*
X2383Y1192D02*
X2389Y1192D01*
X2440Y1192D02*
X2448Y1192D01*
X2383Y1191D02*
X2389Y1191D01*
X2439Y1191D02*
X2447Y1191D01*
X2383Y1190D02*
X2389Y1190D01*
X2438Y1190D02*
X2446Y1190D01*
X2383Y1189D02*
X2389Y1189D01*
X2438Y1189D02*
X2446Y1189D01*
X2383Y1188D02*
X2389Y1188D01*
X2437Y1188D02*
X2445Y1188D01*
X2383Y1187D02*
X2389Y1187D01*
X2436Y1187D02*
X2444Y1187D01*
X2383Y1186D02*
X2389Y1186D01*
X2435Y1186D02*
X2443Y1186D01*
X2383Y1185D02*
X2389Y1185D01*
X2435Y1185D02*
X2443Y1185D01*
X2463Y1185D02*
X2465Y1185D01*
X2383Y1184D02*
X2389Y1184D01*
X2434Y1184D02*
X2442Y1184D01*
X2461Y1184D02*
X2466Y1184D01*
X2383Y1183D02*
X2389Y1183D01*
X2433Y1183D02*
X2441Y1183D01*
X2461Y1183D02*
X2466Y1183D01*
X2383Y1182D02*
X2389Y1182D01*
X2433Y1182D02*
X2440Y1182D01*
X2461Y1182D02*
X2467Y1182D01*
X2383Y1181D02*
X2389Y1181D01*
X2433Y1181D02*
X2439Y1181D01*
X2460Y1181D02*
X2467Y1181D01*
X2383Y1180D02*
X2389Y1180D01*
X2433Y1180D02*
X2439Y1180D01*
X2460Y1180D02*
X2466Y1180D01*
X2383Y1179D02*
X2415Y1179D01*
X2433Y1179D02*
X2466Y1179D01*
X2383Y1178D02*
X2416Y1178D01*
X2433Y1178D02*
X2466Y1178D01*
X2383Y1177D02*
X2416Y1177D01*
X2434Y1177D02*
X2465Y1177D01*
X2384Y1176D02*
X2416Y1176D01*
X2435Y1176D02*
X2464Y1176D01*
X2385Y1175D02*
X2416Y1175D01*
X2435Y1175D02*
X2463Y1175D01*
X2386Y1174D02*
X2416Y1174D01*
X2436Y1174D02*
X2462Y1174D01*
X2387Y1173D02*
X2415Y1173D01*
X2438Y1173D02*
X2460Y1173D01*
X2530Y829D02*
X2537Y829D01*
X3002Y829D02*
X3009Y829D01*
X2530Y828D02*
X2537Y828D01*
X3002Y828D02*
X3009Y828D01*
X2530Y827D02*
X2537Y827D01*
X3002Y827D02*
X3009Y827D01*
X2530Y826D02*
X2537Y826D01*
X3002Y826D02*
X3009Y826D01*
X2530Y825D02*
X2537Y825D01*
X3002Y825D02*
X3009Y825D01*
X2531Y824D02*
X2538Y824D01*
X3002Y824D02*
X3009Y824D01*
X2531Y823D02*
X2538Y823D01*
X3002Y823D02*
X3009Y823D01*
X2531Y822D02*
X2538Y822D01*
X3002Y822D02*
X3009Y822D01*
X2531Y821D02*
X2538Y821D01*
X3001Y821D02*
X3009Y821D01*
X2531Y820D02*
X2538Y820D01*
X3001Y820D02*
X3008Y820D01*
X2532Y819D02*
X2539Y819D01*
X3001Y819D02*
X3008Y819D01*
X2532Y818D02*
X2539Y818D01*
X3001Y818D02*
X3008Y818D01*
X2532Y817D02*
X2539Y817D01*
X3000Y817D02*
X3007Y817D01*
X2532Y816D02*
X2540Y816D01*
X3000Y816D02*
X3007Y816D01*
X2533Y815D02*
X2540Y815D01*
X2999Y815D02*
X3007Y815D01*
X2533Y814D02*
X2541Y814D01*
X2999Y814D02*
X3006Y814D01*
X2534Y813D02*
X2541Y813D01*
X2998Y813D02*
X3006Y813D01*
X2534Y812D02*
X2542Y812D01*
X2998Y812D02*
X3006Y812D01*
X2535Y811D02*
X2543Y811D01*
X2997Y811D02*
X3005Y811D01*
X2535Y810D02*
X2543Y810D01*
X2996Y810D02*
X3005Y810D01*
X2536Y809D02*
X2544Y809D01*
X2996Y809D02*
X3004Y809D01*
X2536Y808D02*
X2545Y808D01*
X2995Y808D02*
X3003Y808D01*
X2537Y807D02*
X2545Y807D01*
X2994Y807D02*
X3003Y807D01*
X2537Y806D02*
X2546Y806D01*
X2993Y806D02*
X3002Y806D01*
X2538Y805D02*
X2547Y805D01*
X2992Y805D02*
X3002Y805D01*
X2539Y804D02*
X2548Y804D01*
X2991Y804D02*
X3001Y804D01*
X2539Y803D02*
X2549Y803D01*
X2990Y803D02*
X3000Y803D01*
X2540Y802D02*
X2551Y802D01*
X2989Y802D02*
X2999Y802D01*
X2541Y801D02*
X2552Y801D01*
X2988Y801D02*
X2998Y801D01*
X2542Y800D02*
X2553Y800D01*
X2986Y800D02*
X2998Y800D01*
X2543Y799D02*
X2555Y799D01*
X2985Y799D02*
X2997Y799D01*
X2544Y798D02*
X2557Y798D01*
X2983Y798D02*
X2996Y798D01*
X2545Y797D02*
X2559Y797D01*
X2981Y797D02*
X2994Y797D01*
X2546Y796D02*
X2562Y796D01*
X2978Y796D02*
X2993Y796D01*
X2548Y795D02*
X2566Y795D01*
X2974Y795D02*
X2992Y795D01*
X2549Y794D02*
X2572Y794D01*
X2967Y794D02*
X2991Y794D01*
X2551Y793D02*
X2573Y793D01*
X2967Y793D02*
X2989Y793D01*
X2552Y792D02*
X2573Y792D01*
X2967Y792D02*
X2987Y792D01*
X2554Y791D02*
X2573Y791D01*
X2967Y791D02*
X2985Y791D01*
X2556Y790D02*
X2573Y790D01*
X2967Y790D02*
X2983Y790D01*
X2559Y789D02*
X2573Y789D01*
X2967Y789D02*
X2981Y789D01*
X2562Y788D02*
X2573Y788D01*
X2967Y788D02*
X2977Y788D01*
X2567Y787D02*
X2573Y787D01*
X2967Y787D02*
X2973Y787D01*
X2572Y739D02*
X2580Y739D01*
X2975Y739D02*
X2983Y739D01*
X2569Y738D02*
X2580Y738D01*
X2975Y738D02*
X2987Y738D01*
X2566Y737D02*
X2580Y737D01*
X2975Y737D02*
X2990Y737D01*
X2563Y736D02*
X2580Y736D01*
X2975Y736D02*
X2992Y736D01*
X2561Y735D02*
X2580Y735D01*
X2975Y735D02*
X2994Y735D01*
X2559Y734D02*
X2580Y734D01*
X2975Y734D02*
X2996Y734D01*
X2558Y733D02*
X2580Y733D01*
X2975Y733D02*
X2998Y733D01*
X2556Y732D02*
X2580Y732D01*
X2975Y732D02*
X2999Y732D01*
X2555Y731D02*
X2572Y731D01*
X2983Y731D02*
X3000Y731D01*
X2554Y730D02*
X2568Y730D01*
X2987Y730D02*
X3002Y730D01*
X2553Y729D02*
X2566Y729D01*
X2989Y729D02*
X3003Y729D01*
X2551Y728D02*
X2564Y728D01*
X2991Y728D02*
X3004Y728D01*
X2550Y727D02*
X2562Y727D01*
X2993Y727D02*
X3005Y727D01*
X2550Y726D02*
X2561Y726D01*
X2995Y726D02*
X3006Y726D01*
X2549Y725D02*
X2559Y725D01*
X2996Y725D02*
X3007Y725D01*
X2548Y724D02*
X2558Y724D01*
X2997Y724D02*
X3008Y724D01*
X2547Y723D02*
X2557Y723D01*
X2999Y723D02*
X3008Y723D01*
X2546Y722D02*
X2556Y722D01*
X3000Y722D02*
X3009Y722D01*
X2546Y721D02*
X2555Y721D01*
X3001Y721D02*
X3010Y721D01*
X2545Y720D02*
X2554Y720D01*
X3002Y720D02*
X3010Y720D01*
X2544Y719D02*
X2553Y719D01*
X3002Y719D02*
X3011Y719D01*
X2544Y718D02*
X2552Y718D01*
X3003Y718D02*
X3012Y718D01*
X2543Y717D02*
X2551Y717D01*
X3004Y717D02*
X3012Y717D01*
X2543Y716D02*
X2551Y716D01*
X3005Y716D02*
X3013Y716D01*
X2542Y715D02*
X2550Y715D01*
X3005Y715D02*
X3013Y715D01*
X2425Y714D02*
X2428Y714D01*
X2454Y714D02*
X2476Y714D01*
X2542Y714D02*
X2549Y714D01*
X3006Y714D02*
X3014Y714D01*
X2424Y713D02*
X2429Y713D01*
X2452Y713D02*
X2478Y713D01*
X2541Y713D02*
X2549Y713D01*
X3006Y713D02*
X3014Y713D01*
X2424Y712D02*
X2429Y712D01*
X2451Y712D02*
X2479Y712D01*
X2541Y712D02*
X2548Y712D01*
X3007Y712D02*
X3014Y712D01*
X2423Y711D02*
X2429Y711D01*
X2450Y711D02*
X2480Y711D01*
X2541Y711D02*
X2548Y711D01*
X3007Y711D02*
X3015Y711D01*
X2423Y710D02*
X2429Y710D01*
X2449Y710D02*
X2480Y710D01*
X2540Y710D02*
X2548Y710D01*
X3008Y710D02*
X3015Y710D01*
X2423Y709D02*
X2429Y709D01*
X2449Y709D02*
X2481Y709D01*
X2540Y709D02*
X2547Y709D01*
X3008Y709D02*
X3015Y709D01*
X2404Y708D02*
X2407Y708D01*
X2423Y708D02*
X2429Y708D01*
X2448Y708D02*
X2481Y708D01*
X2540Y708D02*
X2547Y708D01*
X3009Y708D02*
X3016Y708D01*
X2403Y707D02*
X2408Y707D01*
X2423Y707D02*
X2429Y707D01*
X2448Y707D02*
X2455Y707D01*
X2475Y707D02*
X2481Y707D01*
X2539Y707D02*
X2546Y707D01*
X3009Y707D02*
X3016Y707D01*
X2403Y706D02*
X2409Y706D01*
X2423Y706D02*
X2429Y706D01*
X2448Y706D02*
X2454Y706D01*
X2475Y706D02*
X2481Y706D01*
X2539Y706D02*
X2546Y706D01*
X3009Y706D02*
X3016Y706D01*
X2403Y705D02*
X2409Y705D01*
X2423Y705D02*
X2429Y705D01*
X2448Y705D02*
X2454Y705D01*
X2474Y705D02*
X2481Y705D01*
X2539Y705D02*
X2546Y705D01*
X3009Y705D02*
X3016Y705D01*
X2403Y704D02*
X2409Y704D01*
X2423Y704D02*
X2429Y704D01*
X2448Y704D02*
X2453Y704D01*
X2473Y704D02*
X2481Y704D01*
X2539Y704D02*
X2546Y704D01*
X3010Y704D02*
X3017Y704D01*
X2403Y703D02*
X2409Y703D01*
X2423Y703D02*
X2429Y703D01*
X2448Y703D02*
X2453Y703D01*
X2473Y703D02*
X2480Y703D01*
X2539Y703D02*
X2546Y703D01*
X3010Y703D02*
X3017Y703D01*
X2403Y702D02*
X2409Y702D01*
X2423Y702D02*
X2429Y702D01*
X2450Y702D02*
X2452Y702D01*
X2472Y702D02*
X2480Y702D01*
X2538Y702D02*
X2545Y702D01*
X3010Y702D02*
X3017Y702D01*
X2403Y701D02*
X2409Y701D01*
X2423Y701D02*
X2429Y701D01*
X2471Y701D02*
X2479Y701D01*
X2538Y701D02*
X2545Y701D01*
X3010Y701D02*
X3017Y701D01*
X2403Y700D02*
X2409Y700D01*
X2423Y700D02*
X2429Y700D01*
X2470Y700D02*
X2478Y700D01*
X2538Y700D02*
X2545Y700D01*
X3010Y700D02*
X3017Y700D01*
X2403Y699D02*
X2409Y699D01*
X2423Y699D02*
X2429Y699D01*
X2469Y699D02*
X2477Y699D01*
X2538Y699D02*
X2545Y699D01*
X3010Y699D02*
X3017Y699D01*
X2403Y698D02*
X2409Y698D01*
X2423Y698D02*
X2429Y698D01*
X2469Y698D02*
X2477Y698D01*
X2538Y698D02*
X2545Y698D01*
X3010Y698D02*
X3017Y698D01*
X2403Y697D02*
X2409Y697D01*
X2423Y697D02*
X2429Y697D01*
X2468Y697D02*
X2476Y697D01*
X2538Y697D02*
X2545Y697D01*
X3010Y697D02*
X3017Y697D01*
X2403Y696D02*
X2409Y696D01*
X2423Y696D02*
X2429Y696D01*
X2467Y696D02*
X2475Y696D01*
X2403Y695D02*
X2409Y695D01*
X2423Y695D02*
X2429Y695D01*
X2466Y695D02*
X2474Y695D01*
X2403Y694D02*
X2409Y694D01*
X2423Y694D02*
X2429Y694D01*
X2466Y694D02*
X2474Y694D01*
X2403Y693D02*
X2409Y693D01*
X2423Y693D02*
X2429Y693D01*
X2465Y693D02*
X2473Y693D01*
X2403Y692D02*
X2409Y692D01*
X2423Y692D02*
X2429Y692D01*
X2464Y692D02*
X2472Y692D01*
X2403Y691D02*
X2409Y691D01*
X2423Y691D02*
X2429Y691D01*
X2463Y691D02*
X2471Y691D01*
X2403Y690D02*
X2409Y690D01*
X2423Y690D02*
X2429Y690D01*
X2462Y690D02*
X2470Y690D01*
X2403Y689D02*
X2409Y689D01*
X2423Y689D02*
X2429Y689D01*
X2462Y689D02*
X2470Y689D01*
X2403Y688D02*
X2409Y688D01*
X2423Y688D02*
X2429Y688D01*
X2461Y688D02*
X2469Y688D01*
X2403Y687D02*
X2409Y687D01*
X2423Y687D02*
X2429Y687D01*
X2460Y687D02*
X2468Y687D01*
X2403Y686D02*
X2409Y686D01*
X2423Y686D02*
X2429Y686D01*
X2459Y686D02*
X2467Y686D01*
X2402Y685D02*
X2429Y685D01*
X2459Y685D02*
X2467Y685D01*
X2400Y684D02*
X2429Y684D01*
X2458Y684D02*
X2466Y684D01*
X2400Y683D02*
X2429Y683D01*
X2457Y683D02*
X2465Y683D01*
X2399Y682D02*
X2429Y682D01*
X2456Y682D02*
X2464Y682D01*
X2399Y681D02*
X2429Y681D01*
X2455Y681D02*
X2464Y681D01*
X2400Y680D02*
X2429Y680D01*
X2455Y680D02*
X2463Y680D01*
X2400Y679D02*
X2429Y679D01*
X2454Y679D02*
X2462Y679D01*
X2402Y678D02*
X2409Y678D01*
X2453Y678D02*
X2461Y678D01*
X2403Y677D02*
X2409Y677D01*
X2452Y677D02*
X2460Y677D01*
X2403Y676D02*
X2409Y676D01*
X2452Y676D02*
X2460Y676D01*
X2403Y675D02*
X2409Y675D01*
X2451Y675D02*
X2459Y675D01*
X2403Y674D02*
X2409Y674D01*
X2450Y674D02*
X2458Y674D01*
X2403Y673D02*
X2409Y673D01*
X2449Y673D02*
X2457Y673D01*
X2477Y673D02*
X2479Y673D01*
X2403Y672D02*
X2409Y672D01*
X2449Y672D02*
X2457Y672D01*
X2476Y672D02*
X2480Y672D01*
X2403Y671D02*
X2409Y671D01*
X2448Y671D02*
X2456Y671D01*
X2475Y671D02*
X2481Y671D01*
X2403Y670D02*
X2409Y670D01*
X2448Y670D02*
X2455Y670D01*
X2475Y670D02*
X2481Y670D01*
X2403Y669D02*
X2409Y669D01*
X2448Y669D02*
X2454Y669D01*
X2475Y669D02*
X2481Y669D01*
X2403Y668D02*
X2409Y668D01*
X2448Y668D02*
X2454Y668D01*
X2474Y668D02*
X2481Y668D01*
X2403Y667D02*
X2409Y667D01*
X2448Y667D02*
X2481Y667D01*
X2403Y666D02*
X2409Y666D01*
X2448Y666D02*
X2480Y666D01*
X2403Y665D02*
X2409Y665D01*
X2448Y665D02*
X2480Y665D01*
X2403Y664D02*
X2409Y664D01*
X2449Y664D02*
X2479Y664D01*
X2403Y663D02*
X2408Y663D01*
X2450Y663D02*
X2478Y663D01*
X2403Y662D02*
X2408Y662D01*
X2451Y662D02*
X2477Y662D01*
X2404Y661D02*
X2407Y661D01*
X2453Y661D02*
X2475Y661D01*
X2538Y302D02*
X2545Y302D01*
X3010Y302D02*
X3017Y302D01*
X2538Y301D02*
X2545Y301D01*
X3010Y301D02*
X3017Y301D01*
X2538Y300D02*
X2545Y300D01*
X3010Y300D02*
X3017Y300D01*
X2538Y299D02*
X2545Y299D01*
X3010Y299D02*
X3017Y299D01*
X2538Y298D02*
X2545Y298D01*
X3010Y298D02*
X3017Y298D01*
X2538Y297D02*
X2546Y297D01*
X3010Y297D02*
X3017Y297D01*
X2539Y296D02*
X2546Y296D01*
X3010Y296D02*
X3017Y296D01*
X2539Y295D02*
X2546Y295D01*
X3009Y295D02*
X3017Y295D01*
X2539Y294D02*
X2546Y294D01*
X3009Y294D02*
X3016Y294D01*
X2539Y293D02*
X2546Y293D01*
X3009Y293D02*
X3016Y293D01*
X2540Y292D02*
X2547Y292D01*
X3009Y292D02*
X3016Y292D01*
X2540Y291D02*
X2547Y291D01*
X3008Y291D02*
X3016Y291D01*
X2540Y290D02*
X2547Y290D01*
X3008Y290D02*
X3015Y290D01*
X2540Y289D02*
X2548Y289D01*
X3008Y289D02*
X3015Y289D01*
X2541Y288D02*
X2548Y288D01*
X3007Y288D02*
X3015Y288D01*
X2541Y287D02*
X2549Y287D01*
X3007Y287D02*
X3014Y287D01*
X2542Y286D02*
X2549Y286D01*
X3006Y286D02*
X3014Y286D01*
X2542Y285D02*
X2550Y285D01*
X3005Y285D02*
X3013Y285D01*
X2542Y284D02*
X2550Y284D01*
X3005Y284D02*
X3013Y284D01*
X2543Y283D02*
X2551Y283D01*
X3004Y283D02*
X3012Y283D01*
X2543Y282D02*
X2552Y282D01*
X3003Y282D02*
X3012Y282D01*
X2544Y281D02*
X2553Y281D01*
X3003Y281D02*
X3011Y281D01*
X2545Y280D02*
X2553Y280D01*
X3002Y280D02*
X3011Y280D01*
X2545Y279D02*
X2554Y279D01*
X3001Y279D02*
X3010Y279D01*
X2546Y278D02*
X2555Y278D01*
X3000Y278D02*
X3009Y278D01*
X2547Y277D02*
X2556Y277D01*
X2999Y277D02*
X3009Y277D01*
X2547Y276D02*
X2557Y276D01*
X2998Y276D02*
X3008Y276D01*
X2548Y275D02*
X2559Y275D01*
X2997Y275D02*
X3007Y275D01*
X2549Y274D02*
X2560Y274D01*
X2995Y274D02*
X3006Y274D01*
X2550Y273D02*
X2562Y273D01*
X2994Y273D02*
X3005Y273D01*
X2551Y272D02*
X2563Y272D01*
X2992Y272D02*
X3004Y272D01*
X2552Y271D02*
X2565Y271D01*
X2990Y271D02*
X3003Y271D01*
X2553Y270D02*
X2567Y270D01*
X2988Y270D02*
X3002Y270D01*
X2554Y269D02*
X2570Y269D01*
X2985Y269D02*
X3001Y269D01*
X2556Y268D02*
X2575Y268D01*
X2980Y268D02*
X3000Y268D01*
X2557Y267D02*
X2580Y267D01*
X2975Y267D02*
X2998Y267D01*
X2559Y266D02*
X2580Y266D01*
X2975Y266D02*
X2996Y266D01*
X2561Y265D02*
X2580Y265D01*
X2975Y265D02*
X2995Y265D01*
X2563Y264D02*
X2580Y264D01*
X2975Y264D02*
X2993Y264D01*
X2565Y263D02*
X2580Y263D01*
X2975Y263D02*
X2991Y263D01*
X2567Y262D02*
X2580Y262D01*
X2975Y262D02*
X2988Y262D01*
X2571Y261D02*
X2580Y261D01*
X2975Y261D02*
X2985Y261D01*
X2576Y260D02*
X2580Y260D01*
X2975Y260D02*
X2979Y260D01*
D02*
G04 End of Silk0*
M02*